<svg xmlns="http://www.w3.org/2000/svg" height="24" viewBox="0 -960 960 960" width="24" fill="#e0e0e0"><path d="M200-120q-33 0-56.5-23.5T120-200v-160q0-17 11.5-28.5T160-400q17 0 28.5 11.5T200-360v160h560v-560H200v160q0 17-11.5 28.5T160-560q-17 0-28.5-11.5T120-600v-160q0-33 23.5-56.5T200-840h560q33 0 56.5 23.5T840-760v560q0 33-23.5 56.5T760-120H200Zm264-280H160q-17 0-28.5-11.5T120-440q0-17 11.5-28.5T160-480h304l-64-64q-11-11-11-27.5t12-28.5q11-11 28-11t28 11l104 104q12 12 12 28t-12 28L457-336q-11 11-27.5 11.5T401-336q-12-12-12-28.5t12-27.5l63-68Z"/></svg>
