<svg xmlns="http://www.w3.org/2000/svg" height="24" viewBox="0 -960 960 960" width="24" fill="#e0e0e0"><path d="M433-80q-20 0-35-12.5T382-126l-14-108q-17-7-34-17t-31-21l-100 42q-19 8-38.5 1T137-252L71-370q-10-17-6-36.5T83-434l86-64q-1-9-1.5-18.5T167-536q0-9 .5-18.5T169-574l-86-64q-14-10-18-29.5T71-704l66-118q9-17 28.5-24.5T204-848l100 42q14-11 31-21t34-17l14-108q2-21 17-33.5t35-12.5h94q20 0 35 12.5t16 33.5l14 108q17 7 34 17t31 21l100-42q19-8 38.5-1t27.5 23l66 118q10 17 6 36.5T823-434l-86 64q1 9 1.5 18.5T739-332q0 9-.5 18.5T737-294l86 64q14 10 18 29.5T835-164l-66 118q-9 17-28.5 24.5T702-20l-100-42q-14 11-31 21t-34 17l-14 108q-2 21-16.5 33.5T471-80h-38Zm49-260q58 0 99-41t41-99q0-58-41-99t-99-41q-58 0-99 41t-41 99q0 58 41 99t99 41Z"/></svg>
