<svg xmlns="http://www.w3.org/2000/svg" height="24" viewBox="0 -960 960 960" width="24" fill="#e0e0e0"><path d="M160-120q-17 0-28.5-11.5T120-160v-120q0-17 11.5-28.5T160-320q17 0 28.5 11.5T200-280v40h560v-40q0-17 11.5-28.5T800-320q17 0 28.5 11.5T840-280v120q0 17-11.5 28.5T800-120H160Zm320-194q-12 0-22.5-5T440-332L312-460q-11-11-11-27.5t12-28.5q11-11 28-11t28 11l71 71v-335q0-17 11.5-28.5T480-820q17 0 28.5 11.5T520-780v335l71-71q11-11 27.5-11.5T647-516q12 12 12 28.5T648-460L520-332q-7 7-17.5 12.5T480-314Z"/></svg>
